<?xml version="1.0" encoding="UTF-8"?>
<svg id="INFO" xmlns="http://www.w3.org/2000/svg" viewBox="0 0 17 17">
  <defs>
    <style>
      .cls-1 {
        stroke-width: 0px;
      }
    </style>
  </defs>
  <path class="cls-1" d="m15.45,2.32c0-.43-.35-.77-.77-.77h0c-.43,0-.77.35-.77.77v12.36c0,.43.35.77.77.77h0c.43,0,.77-.35.77-.77V2.32Zm1.55,13.14c0,.85-.69,1.55-1.55,1.55h-1.55c-.85,0-1.55-.69-1.55-1.55V1.55c0-.85.69-1.55,1.55-1.55h1.55c.85,0,1.55.69,1.55,1.55v13.91h0Zm-15.45-.55c0,.3.25.55.55.55h.44c.3,0,.55-.25.55-.55v-3.53c0-.3-.25-.55-.55-.55h-.37c-.35,0-.63.28-.63.63v3.46Zm0-5.63h1.55c.85,0,1.55.69,1.55,1.55v4.64c0,.85-.69,1.55-1.55,1.55h-1.55c-.85,0-1.55-.69-1.55-1.55v-4.64c0-.85.69-1.55,1.55-1.55h0Zm7.73.77c0-.43.35-.77.77-.77s.77.35.77.77v5.44c0,.83-.68,1.51-1.51,1.51h-1.61c-.83,0-1.51-.68-1.51-1.51V6.15c0-.83.68-1.51,1.51-1.51h1.61c.83,0,1.51.68,1.51,1.51v.81c0,.43-.35.77-.77.77s-.77-.35-.77-.77v-.77h-.77c-.43,0-.77.35-.77.77v7.73c0,.43.35.77.77.77h0c.43,0,.77-.35.77-.77v-4.64h0Z"/>
</svg>