<?xml version="1.0" encoding="UTF-8"?>
<svg id="INFO" xmlns="http://www.w3.org/2000/svg" viewBox="0 0 17 17">
  <defs>
    <style>
      .cls-1 {
        stroke-width: 0px;
      }
    </style>
  </defs>
  <path id="Trazado_107" data-name="Trazado 107" class="cls-1" d="m16.58.28c-.26-.22-.61-.32-.96-.26L5.87,1.64c-.57.09-.98.58-.98,1.16v7.19c-1.87-.7-3.96.26-4.65,2.13-.7,1.87.26,3.96,2.13,4.65,1.87.7,3.96-.26,4.65-2.13.15-.4.23-.83.23-1.26V3.8l7.41-1.23v5.8c-1.87-.7-3.96.26-4.65,2.13s.26,3.96,2.13,4.65c1.87.7,3.96-.26,4.65-2.13.15-.4.23-.83.23-1.26V1.18c0-.35-.15-.67-.42-.9M3.62,14.64c-.7,0-1.26-.56-1.26-1.26,0-.7.56-1.26,1.26-1.26s1.26.56,1.26,1.26h0c0,.7-.56,1.26-1.26,1.26m9.76-1.63c-.7,0-1.26-.56-1.26-1.26s.56-1.26,1.26-1.26c.7,0,1.26.56,1.26,1.26h0c0,.7-.56,1.26-1.26,1.26"/>
</svg>