<?xml version="1.0" encoding="UTF-8"?>
<svg id="INFO" xmlns="http://www.w3.org/2000/svg" viewBox="0 0 12.3 16.78">
  <defs>
    <style>
      .cls-1 {
        stroke-width: 0px;
      }
    </style>
  </defs>
  <path class="cls-1" d="m1.51,4.59c0,1.37.61,2.6,1.57,3.44C1.24,9.1,0,11.08,0,13.35v.86C0,15.63,1.15,16.78,2.57,16.78h7.16c1.42,0,2.57-1.15,2.57-2.57v-.86c0-2.3-1.27-4.3-3.14-5.35.94-.84,1.53-2.06,1.53-3.41,0-2.53-2.06-4.59-4.59-4.59S1.51,2.06,1.51,4.59Zm4.64,4.59c2.3,0,4.17,1.87,4.17,4.17v.86c0,.33-.27.59-.59.59H2.57c-.33,0-.59-.27-.59-.59v-.86c0-2.3,1.87-4.17,4.17-4.17Zm-.05-1.98c-1.44,0-2.61-1.17-2.61-2.61s1.17-2.61,2.61-2.61,2.61,1.17,2.61,2.61-1.17,2.61-2.61,2.61Z"/>
</svg>