<?xml version="1.0" encoding="UTF-8"?>
<svg id="INFO" xmlns="http://www.w3.org/2000/svg" viewBox="0 0 16.78 16.78">
  <defs>
    <style>
      .cls-1 {
        stroke-width: 0px;
      }
    </style>
  </defs>
  <path class="cls-1" d="m16.02,12.24c-.42,0-.76.34-.76.76v2.25h-4.58v-4.58h4.58c0,.42.34.76.76.76s.76-.34.76-.76c0-.84-.68-1.53-1.53-1.53h-4.58c-.84,0-1.53.68-1.53,1.53v4.58c0,.84.68,1.53,1.53,1.53h4.58c.84,0,1.53-.68,1.53-1.53v-2.25c0-.42-.34-.76-.76-.76Z"/>
  <path class="cls-1" d="m9.92,4.58h3.5l-.99.99c-.3.3-.3.78,0,1.08.3.3.78.3,1.08,0l2.29-2.29s0,0,0,0c.07-.07.12-.15.16-.24.08-.19.08-.4,0-.58-.04-.09-.09-.18-.16-.25l-2.29-2.29c-.3-.3-.78-.3-1.08,0-.3.3-.3.78,0,1.08l.99.99h-3.5c-.42,0-.76.34-.76.76s.34.76.76.76Z"/>
  <path class="cls-1" d="m6.86,12.2H2.6l.99-.99c.3-.3.3-.78,0-1.08-.3-.3-.78-.3-1.08,0L.22,12.43c-.3.3-.3.78,0,1.08l2.29,2.29c.3.3.78.3,1.08,0,.3-.3.3-.78,0-1.08l-.99-.99h4.26c.42,0,.76-.34.76-.76s-.34-.76-.76-.76Z"/>
  <path class="cls-1" d="m6.58,2.31c-.41.11-.65.52-.55.93.05.19.07.38.07.57,0,1.26-1.02,2.29-2.29,2.29s-2.29-1.02-2.29-2.29S2.55,1.53,3.81,1.53c.41,0,.8.11,1.14.31.36.21.83.09,1.04-.28.21-.36.09-.83-.28-1.04-.58-.33-1.23-.51-1.91-.51C1.71,0,0,1.71,0,3.81s1.71,3.81,3.81,3.81,3.81-1.71,3.81-3.81c0-.32-.04-.64-.12-.95-.11-.41-.52-.65-.93-.55Z"/>
</svg>