<?xml version="1.0" encoding="UTF-8"?>
<svg id="INFO" xmlns="http://www.w3.org/2000/svg" viewBox="0 0 19.96 18.78">
  <defs>
    <style>
      .cls-1 {
        stroke-width: 0px;
      }
    </style>
  </defs>
  <path id="Trazado_35" data-name="Trazado 35" class="cls-1" d="m5.98,7.9c-2.49-.65-2.7-1.25-2.7-1.76,0-.88.9-1.45,2.3-1.45,1.78,0,2.06.92,2.1,1.72.01.21.19.38.4.38h2.21c.22,0,.4-.18.4-.4,0,0,0,0,0-.01-.04-1.93-1.34-3.6-3.21-4.11V.4c0-.22-.18-.4-.4-.4h-3c-.22,0-.4.18-.4.4v1.84C1.51,2.82.18,4.3.18,6.16c0,2.97,2.85,4,5,4.52,2.69.64,2.69,1.57,2.69,2.02,0,.33-.17,1.39-2.3,1.39-1.6,0-2.47-.58-2.58-1.73-.02-.21-.19-.36-.4-.36H.4C.18,11.98,0,12.16,0,12.39c0,0,0,.02,0,.03.11,2.02,1.48,3.54,3.67,4.12v1.85c0,.22.18.4.4.4h3c.22,0,.4-.18.4-.4v-1.82c2.23-.52,3.5-1.92,3.5-3.87,0-3.07-2.52-4.14-4.99-4.78"/>
  <path class="cls-1" d="m13.49,5.29c-.54,0-.97-.44-.97-.97,0-.54.44-.97.97-.97h5.49c.54,0,.97.44.97.98v5.49c0,.54-.43.97-.96.97-.54,0-.97-.43-.97-.97v-3.15s-3.34,3.34-3.34,3.34c-.38.38-.99.38-1.37,0s-.38-.99,0-1.37l3.33-3.34h-3.15Z"/>
</svg>