<?xml version="1.0" encoding="UTF-8"?>
<svg id="INFO" xmlns="http://www.w3.org/2000/svg" viewBox="0 0 18.03 18.78">
  <defs>
    <style>
      .cls-1 {
        stroke-width: 0px;
      }
    </style>
  </defs>
  <path class="cls-1" d="m17.98,15.72l-.98-4.9c-.52-2.58-2.22-4.67-4.48-5.75l1.56-3.89c.27-.68-.37-1.36-1.06-1.13l-2.22.74-1.4-.7c-.24-.12-.52-.12-.76,0l-1.38.69L5.02.05c-.69-.23-1.33.45-1.06,1.13l1.56,3.89c-2.26,1.08-3.96,3.17-4.48,5.75L.05,15.72c-.03.17-.05.33-.05.5,0,1.41,1.15,2.56,2.56,2.56h.48c.47,0,.85-.38.85-.85s-.38-.85-.85-.85h-.48c-.47,0-.85-.38-.85-.85,0-.06,0-.11.02-.17l.98-4.9c.6-3.01,3.24-5.17,6.31-5.17s5.71,2.17,6.31,5.17l.98,4.9c.09.46-.21.91-.67,1-.06.01-.11.02-.17.02H6.45c-.47,0-.85.38-.85.85s.38.85.85.85h9.01c.17,0,.34-.02.5-.05,1.39-.28,2.29-1.63,2.01-3.01ZM7.12,4.5l-.9-2.25.82.27c.22.07.45.05.65-.05l1.32-.66,1.34.66c.2.1.44.12.65.05l.8-.27-.9,2.25c-.61-.15-1.24-.23-1.89-.23s-1.28.08-1.89.23Z"/>
  <path class="cls-1" d="m9.13,13.39c-.66,0-1.01-.24-1.05-.71,0-.08-.08-.15-.16-.15h-.9c-.09,0-.16.07-.16.16,0,0,0,0,0,.01.05.83.6,1.45,1.5,1.69v.76c0,.09.07.16.16.16h1.23c.09,0,.16-.07.16-.16v-.75c.91-.21,1.43-.79,1.43-1.58,0-1.26-1.03-1.69-2.04-1.96h0c-1.02-.27-1.1-.51-1.1-.72,0-.36.37-.59.94-.59.73,0,.84.38.86.7,0,.09.08.16.16.16h.9c.09,0,.16-.07.16-.16,0,0,0,0,0,0-.02-.79-.55-1.47-1.31-1.68v-.77c0-.09-.07-.16-.16-.16h-1.23c-.09,0-.16.07-.16.16v.75c-.89.23-1.43.84-1.43,1.6,0,1.21,1.17,1.63,2.05,1.85,1.1.26,1.1.64,1.1.83,0,.13-.07.57-.94.57Z"/>
</svg>