<?xml version="1.0" encoding="UTF-8"?>
<svg id="INFO" xmlns="http://www.w3.org/2000/svg" viewBox="0 0 35 35">
  <defs>
    <style>
      .cls-1 {
        fill: #00ff1a;
        stroke-width: 0px;
      }
    </style>
  </defs>
  <path id="Icon_ionic-ios-checkmark-circle" data-name="Icon ionic-ios-checkmark-circle" class="cls-1" d="m17.5,0C7.84,0,0,7.84,0,17.5s7.84,17.5,17.5,17.5,17.5-7.84,17.5-17.5C35,7.84,27.17,0,17.51,0c0,0,0,0,0,0Zm8.96,12.66l-11.25,11.3h0c-.26.27-.61.43-.98.46-.38-.03-.73-.2-.98-.48l-4.72-4.7c-.13-.13-.14-.34,0-.47,0,0,0,0,0,0l1.5-1.5c.12-.13.33-.13.46,0,0,0,0,0,0,0l3.74,3.74,10.26-10.34c.06-.06.15-.1.24-.1h0c.09,0,.18.03.24.1l1.47,1.52c.14.12.15.33.02.47,0,0,0,0,0,0Z"/>
</svg>