<?xml version="1.0" encoding="UTF-8"?>
<svg id="INFO" xmlns="http://www.w3.org/2000/svg" viewBox="0 0 14.39 24.64">
  <defs>
    <style>
      .cls-1 {
        fill: #6f6f6f;
        stroke-width: 0px;
      }
    </style>
  </defs>
  <path id="Trazado_35" data-name="Trazado 35" class="cls-1" d="m7.84,10.37c-3.26-.85-3.54-1.64-3.54-2.31,0-1.15,1.18-1.9,3.01-1.9,2.34,0,2.7,1.2,2.75,2.26.01.28.24.5.53.5h2.9c.29,0,.53-.24.53-.53,0,0,0,0,0-.01-.05-2.53-1.76-4.73-4.2-5.4V.53C9.81.24,9.57,0,9.28,0h0s-3.94,0-3.94,0c-.29,0-.53.24-.53.53h0v2.42C2.26,3.36.35,5.51.24,8.09c0,3.9,3.75,5.25,6.57,5.93,3.53.85,3.53,2.05,3.53,2.65,0,.43-.22,1.82-3.01,1.82-2.11,0-3.25-.77-3.39-2.28-.03-.27-.25-.48-.52-.48H.53C.24,15.73,0,15.97,0,16.26c0,0,0,.02,0,.03.18,2.69,2.17,4.92,4.82,5.41v2.42c0,.29.23.52.52.53h3.94c.29,0,.53-.24.53-.53v-2.39c2.59-.3,4.55-2.47,4.59-5.08,0-4.03-3.31-5.43-6.55-6.27"/>
</svg>