<?xml version="1.0" encoding="UTF-8"?>
<svg id="INFO" xmlns="http://www.w3.org/2000/svg" viewBox="0 0 29.97 28.97">
  <defs>
    <style>
      .cls-1 {
        stroke-width: 0px;
      }
    </style>
  </defs>
  <path class="cls-1" d="m.7,16.77c1.8,5.23,6.69,8.51,11.92,8.51,1.37,0,2.76-.23,4.12-.7.76-.26,1.47-.6,2.14-.98l6.13,5.37,4.97-5.5-6.03-5.28c1.42-2.91,1.73-6.37.59-9.68C22.73,3.28,17.84,0,12.61,0c-1.37,0-2.76.22-4.12.7C1.91,2.98-1.58,10.18.7,16.77Zm3.65-8.16c1.07-2.21,2.94-3.88,5.26-4.68h0c.97-.34,1.99-.51,3.01-.51,3.91,0,7.41,2.49,8.69,6.2.8,2.33.65,4.83-.42,7.04-1.07,2.21-2.94,3.88-5.26,4.68-.98.34-1.99.51-3.01.51-3.91,0-7.4-2.49-8.69-6.2-.8-2.32-.65-4.82.42-7.04Z"/>
</svg>