<?xml version="1.0" encoding="UTF-8"?>
<svg id="INFO" xmlns="http://www.w3.org/2000/svg" viewBox="0 0 30 30">
  <defs>
    <style>
      .cls-1 {
        stroke-width: 0px;
      }
    </style>
  </defs>
  <path class="cls-1" d="m15,0C6.73,0,0,6.73,0,15s6.73,15,15,15,15-6.73,15-15S23.27,0,15,0Zm12.95,14h-3.95c-.04-2.67-.57-5.03-1.28-7.01.54-.3,1.07-.63,1.61-1.01,2.04,2.11,3.37,4.92,3.61,8.02Zm-10.71,13.35c-.12.14-.18.3-.21.47-.34.05-.68.1-1.03.12v-4.91c1,.07,2.26.28,3.64.76-.82,1.54-1.71,2.74-2.4,3.55Zm4.23-2.75c.44.23.87.49,1.31.78-.85.64-1.76,1.18-2.75,1.6.47-.69.97-1.48,1.44-2.38Zm-8.71,2.75c-.69-.81-1.58-2.01-2.4-3.55,1.06-.37,2.27-.66,3.63-.75v4.9c-.35-.03-.69-.07-1.03-.12-.03-.17-.09-.33-.21-.47Zm-2.8-.37c-.99-.42-1.92-.97-2.77-1.61.37-.25.82-.51,1.32-.77.47.9.97,1.7,1.44,2.38Zm-.88-19.13c1.37.55,3.03.97,4.91,1.09v5.05h-6c.04-2.33.48-4.39,1.09-6.14Zm2.72-5.27c.04-.06.06-.13.09-.2.68-.17,1.38-.28,2.1-.34v4.9c-1.59-.12-3-.48-4.17-.94.67-1.46,1.4-2.61,1.98-3.42Zm-3.78,2.55c-.3-.17-.58-.34-.83-.51.52-.39,1.05-.75,1.62-1.06-.27.48-.53,1-.79,1.57Zm10.16-2.55c.58.8,1.31,1.96,1.98,3.41-1.58.62-3.04.88-4.17.96V2.05c.72.06,1.42.17,2.1.34.03.07.05.14.09.2Zm2.99.98c.56.31,1.1.66,1.61,1.05-.27.18-.54.36-.81.52-.26-.56-.53-1.09-.79-1.56Zm-7.18,12.44v5.05c-1.7.11-3.21.46-4.49.94-.7-1.7-1.26-3.71-1.45-5.99h5.94Zm2,5.04v-5.04h5.94c-.19,2.28-.74,4.28-1.44,5.98-1.72-.62-3.29-.86-4.5-.94Zm0-7.04v-5.04c1.3-.09,3.03-.37,4.91-1.11.61,1.76,1.05,3.82,1.09,6.15h-6ZM5.66,5.98c.43.31.97.66,1.61,1.01-.71,1.98-1.23,4.34-1.28,7.01h-3.95c.24-3.1,1.57-5.9,3.61-8.02Zm-3.61,10.02h4.01c.19,2.6.82,4.87,1.62,6.79-.82.42-1.49.85-2.02,1.23-2.04-2.11-3.37-4.91-3.61-8.02Zm22.29,8.02c-.67-.48-1.35-.89-2.01-1.23.8-1.92,1.43-4.2,1.62-6.8h4.01c-.24,3.11-1.57,5.91-3.61,8.02Z"/>
</svg>