<?xml version="1.0" encoding="UTF-8"?>
<svg id="INFO" xmlns="http://www.w3.org/2000/svg" viewBox="0 0 29.4 21.41">
  <defs>
    <style>
      .cls-1 {
        fill: #6f6f6f;
        stroke-width: 0px;
      }
    </style>
  </defs>
  <path id="Trazado_102" data-name="Trazado 102" class="cls-1" d="m14.7,21.4c-3.63.06-7.25-.15-10.85-.61-1.56-.43-2.78-1.64-3.23-3.2-.02-.04-.03-.08-.03-.12C.18,15.25-.01,12.99,0,10.73c-.01-2.25.19-4.49.58-6.7,0-.03,0-.05.02-.08.41-1.61,1.64-2.87,3.23-3.32h.02C7.45.16,11.07-.05,14.7,0c3.62-.05,7.23.13,10.83.55h.04c1.57.46,2.79,1.7,3.22,3.28.01.05.02.09.03.14.4,2.23.6,4.49.58,6.75,0,2.23-.19,4.45-.58,6.65,0,.03-.01.05-.02.08-.4,1.61-1.64,2.88-3.23,3.33h-.02c-3.6.46-7.22.66-10.85.61m-11.72-4.42c.22.71.79,1.26,1.51,1.45,3.39.42,6.8.59,10.21.52,3.41.07,6.82-.1,10.21-.52.74-.21,1.31-.79,1.51-1.53.36-2.03.54-4.09.54-6.16h0c.01-2.11-.17-4.2-.53-6.26-.2-.74-.76-1.32-1.49-1.54-3.39-.37-6.81-.53-10.22-.47-3.41-.07-6.82.1-10.21.52-.74.21-1.31.79-1.51,1.53-.37,2.05-.55,4.13-.54,6.21h0c-.01,2.11.17,4.19.53,6.25"/>
  <path id="Trazado_103" data-name="Trazado 103" class="cls-1" d="m11.95,15.96c-.68,0-1.23-.55-1.23-1.23V6.72c0-.68.56-1.23,1.24-1.22.21,0,.41.06.59.15l7.04,4c.59.34.79,1.1.44,1.68-.11.18-.26.34-.44.44l-7.04,4.01c-.18.1-.39.16-.61.16m1.23-7.13v3.8l3.34-1.9-3.34-1.9Z"/>
</svg>