<?xml version="1.0" encoding="UTF-8"?>
<svg id="INFO" xmlns="http://www.w3.org/2000/svg" viewBox="0 0 169 48">
  <defs>
    <style>
      .cls-1 {
        fill: #6f6f6f;
        stroke-width: 0px;
      }
    </style>
  </defs>
  <g>
    <path class="cls-1" d="m18.64,20.77c-1.16-1.42-2.28-2.44-5.23-4.76q-3.68-2.8-4.54-3.76c-.85-.9-1.36-2.1-1.36-3.22,0-1.79,1.33-3.14,3.08-3.14,2,0,3.41,1.63,4.19,4.85l.1.42,5.97-1.75-.1-.39C19.25,3.12,15.74,0,10.59,0,7.91,0,5.49.89,3.77,2.51c-1.72,1.63-2.67,3.92-2.67,6.46,0,2.22.72,4.37,2.02,6.05,1.33,1.7,1.54,1.92,6.44,5.76,3.98,3.11,5.01,4.44,5.01,6.46,0,2.12-1.43,3.55-3.55,3.55-2.66,0-4.33-1.99-4.97-5.92l-.08-.46-5.97,1.75.06.36c.56,3.38,1.76,5.95,3.58,7.63,1.81,1.68,4.29,2.53,7.37,2.53,2.9,0,5.38-.89,7.19-2.57,1.81-1.69,2.77-4.01,2.77-6.72,0-2.4-.85-4.81-2.34-6.63Z"/>
    <path class="cls-1" d="m41.72,3.16c-1.67-1.62-3.9-2.31-7.45-2.31h-9.16v34.97h6.08v-13.83h3.08c3.55,0,5.77-.69,7.45-2.32,1.91-1.8,2.84-4.49,2.84-8.23s-.9-6.45-2.84-8.28Zm-3.45,8.23c0,3.82-1.16,4.92-5.18,4.92h-1.9V6.52h1.9c4.02,0,5.18,1.09,5.18,4.87Z"/>
    <polygon class="cls-1" points="54.7 30.14 54.7 .85 48.61 .85 48.61 35.81 65.2 35.81 65.2 30.14 54.7 30.14"/>
    <rect class="cls-1" x="69.24" y=".85" width="6.08" height="34.97"/>
    <polygon class="cls-1" points="79.37 .85 79.37 6.52 85.98 6.52 85.98 35.81 92.06 35.81 92.06 6.52 98.72 6.52 101.47 .85 79.37 .85"/>
    <polygon class="cls-1" points="132.35 .85 127.91 20.83 123.52 .85 115.06 .85 115.06 35.81 120.89 35.81 120.89 13.76 126.05 35.81 129.66 35.81 134.88 13.73 134.88 35.81 140.71 35.81 140.71 .85 132.35 .85"/>
    <g>
      <polygon class="cls-1" points="165.66 7.74 144.85 7.74 144.85 .85 169 .85 165.66 7.74"/>
      <polygon class="cls-1" points="165.66 22.13 144.85 22.13 144.85 15.24 169 15.24 165.66 22.13"/>
      <polygon class="cls-1" points="165.66 35.81 144.85 35.81 144.85 28.92 169 28.92 165.66 35.81"/>
    </g>
  </g>
  <g>
    <g>
      <path class="cls-1" d="m46.3,45.41c-.08-.35-.24-.52-.46-.52-.2,0-.35.15-.35.36,0,.12.05.25.15.35q.09.1.46.38c.29.23.4.33.52.47.14.17.23.4.23.64,0,.53-.39.89-.96.89s-.95-.32-1.06-.99l.52-.15c.07.42.25.63.54.63.24,0,.4-.16.4-.4,0-.22-.11-.36-.52-.68-.49-.38-.51-.4-.64-.57-.13-.16-.19-.37-.19-.58,0-.5.38-.86.91-.86.5,0,.83.3.98.88l-.52.15Z"/>
      <path class="cls-1" d="m52.52,45.58v-.09c0-.38-.14-.59-.41-.59-.15,0-.26.06-.32.17-.07.12-.08.22-.08.5v1.16c0,.27.02.4.06.52.05.14.19.23.35.23.2,0,.33-.12.38-.36.02-.08.03-.17.03-.41h.55v.12c0,.77-.33,1.16-.96,1.16-.35,0-.63-.14-.78-.39-.13-.21-.17-.42-.17-.94v-.98c0-.56.04-.75.2-.97.15-.21.41-.33.74-.33.61,0,.95.4.95,1.11v.08h-.54Z"/>
      <path class="cls-1" d="m59.35,46.82c0,.39-.06.63-.2.83-.16.22-.42.34-.75.34s-.6-.12-.76-.34c-.14-.2-.2-.44-.2-.83v-1.27c0-.39.06-.63.2-.83.16-.22.42-.34.76-.34s.6.12.75.34c.14.2.2.44.2.83v1.27Zm-1.37-.01c0,.28.02.37.07.48.06.12.19.19.35.19s.28-.07.35-.19c.06-.11.07-.19.07-.48v-1.25c0-.28-.01-.37-.07-.48-.06-.12-.19-.19-.35-.19s-.28.07-.35.19c-.05.1-.07.2-.07.48v1.25Z"/>
      <path class="cls-1" d="m64.31,47.94h-.54v-3.5h.84c.32,0,.52.06.69.21.21.18.31.45.31.79,0,.44-.16.74-.47.91l.51,1.59h-.57l-.46-1.44h-.33v1.44Zm.2-1.93c.23,0,.34-.03.42-.11.09-.09.13-.23.13-.42s-.04-.33-.13-.42c-.08-.08-.19-.11-.42-.11h-.2v1.06h.2Z"/>
      <path class="cls-1" d="m71.34,45.58v-.09c0-.38-.14-.59-.41-.59-.15,0-.26.06-.32.17-.07.12-.08.22-.08.5v1.16c0,.27.02.4.06.52.05.14.19.23.35.23.2,0,.33-.12.38-.36.02-.08.03-.17.03-.41h.55v.12c0,.77-.33,1.16-.96,1.16-.35,0-.63-.14-.78-.39-.13-.21-.17-.42-.17-.94v-.98c0-.56.04-.75.2-.97.15-.21.41-.33.74-.33.61,0,.95.4.95,1.11v.08h-.54Z"/>
      <path class="cls-1" d="m76.82,47.94h-.54v-3.5h.54v3.5Z"/>
      <path class="cls-1" d="m81.85,47.18l-.14.76h-.53l.67-3.5h.74l.71,3.5h-.56l-.15-.76h-.74Zm.37-2.07l-.28,1.57h.57l-.29-1.57Z"/>
    </g>
    <g>
      <path class="cls-1" d="m25.11,44.44h.81c.66,0,1.02.32,1.02.89,0,.41-.18.66-.58.78.47.14.66.38.66.84,0,.62-.39.99-1.04.99h-.88v-3.5Zm.73,1.43c.33,0,.55-.19.55-.49,0-.13-.05-.25-.13-.33-.09-.08-.2-.11-.4-.11h-.2v.93h.19Zm.08,1.57c.35,0,.54-.18.54-.49,0-.35-.24-.58-.62-.58h-.19v1.07h.27Z"/>
      <path class="cls-1" d="m30.2,47.94h-.54v-1.36l-.79-2.13h.6l.47,1.48.48-1.48h.59l-.81,2.13v1.36Z"/>
    </g>
    <g>
      <path class="cls-1" d="m90.78,44.27h.26l1.47,2.17,1.47-2.17h.26v3.67h-.27v-3.19l-1.45,2.11h-.02l-1.45-2.11v3.19h-.26v-3.67Z"/>
      <path class="cls-1" d="m105.19,48c-.22,0-.42-.03-.61-.1s-.34-.17-.48-.3-.24-.3-.31-.5c-.07-.2-.11-.42-.11-.68v-2.15h.27v2.12c0,.44.11.77.33,1.01.22.24.52.35.92.35.19,0,.35-.03.5-.08.15-.06.28-.14.39-.25.11-.11.19-.25.25-.42.06-.17.09-.36.09-.58v-2.15h.27v2.11c0,.26-.04.49-.11.7s-.18.37-.31.51c-.13.14-.29.24-.47.31-.18.07-.39.1-.61.1Z"/>
      <path class="cls-1" d="m117.32,47.99c-.29,0-.56-.05-.79-.15s-.46-.24-.68-.44l.18-.2c.1.09.2.18.3.24.1.07.2.12.31.17.11.04.22.08.33.1.12.02.24.03.38.03s.26-.02.38-.06c.12-.04.21-.09.29-.15.08-.06.14-.14.19-.23.05-.09.07-.19.07-.29h0c0-.11-.01-.2-.04-.27-.03-.08-.08-.15-.16-.21-.08-.06-.18-.12-.32-.17s-.3-.1-.51-.14c-.22-.05-.41-.1-.57-.16-.16-.06-.29-.13-.39-.21s-.17-.18-.22-.29c-.05-.11-.07-.23-.07-.37h0c0-.15.03-.27.09-.39.06-.12.14-.22.25-.31.11-.09.23-.16.37-.2.14-.05.3-.07.47-.07.27,0,.5.04.69.11.19.07.38.19.57.34l-.17.22c-.17-.15-.35-.26-.53-.32-.18-.06-.37-.09-.57-.09-.14,0-.26.02-.37.06-.11.04-.2.09-.28.15-.08.06-.14.14-.18.22-.04.08-.06.17-.06.27h0c0,.11.01.2.04.28.03.08.08.15.16.22.08.06.19.12.33.18.14.05.32.1.54.15.43.09.73.21.92.37.19.16.28.37.28.64h0c0,.16-.03.29-.09.42-.06.12-.15.23-.25.32-.11.09-.23.16-.38.2-.15.05-.31.07-.49.07Z"/>
      <path class="cls-1" d="m127.82,44.27h.27v3.67h-.27v-3.67Z"/>
      <path class="cls-1" d="m139.25,48c-.26,0-.51-.05-.73-.15s-.42-.23-.58-.4-.29-.37-.38-.6c-.09-.23-.14-.48-.14-.74h0c0-.27.05-.51.14-.74.09-.23.22-.43.38-.61.16-.17.36-.31.58-.41.22-.1.47-.15.73-.15.16,0,.31.01.45.04.13.03.26.07.37.12.11.05.22.11.32.19s.2.15.29.24l-.19.2c-.08-.08-.16-.15-.25-.21-.09-.07-.18-.12-.28-.17s-.21-.08-.33-.11c-.12-.03-.24-.04-.38-.04-.22,0-.42.04-.61.13-.19.08-.35.2-.49.35-.14.15-.25.32-.33.52s-.12.41-.12.65h0c0,.24.04.46.12.66.08.2.19.38.33.52.14.15.3.27.49.35.19.09.39.13.61.13.27,0,.5-.05.69-.15.2-.1.39-.24.57-.42l.18.18c-.1.09-.2.18-.3.26-.1.08-.21.15-.33.2-.12.06-.24.1-.38.13-.14.03-.29.05-.45.05Z"/>
    </g>
    <g>
      <polygon class="cls-1" points="40.66 45.2 38.59 45.2 38.59 44.52 41 44.52 40.66 45.2"/>
      <polygon class="cls-1" points="40.66 46.64 38.59 46.64 38.59 45.95 41 45.95 40.66 46.64"/>
      <polygon class="cls-1" points="40.66 48 38.59 48 38.59 47.32 41 47.32 40.66 48"/>
    </g>
  </g>
</svg>