<?xml version="1.0" encoding="UTF-8"?>
<svg id="INFO" xmlns="http://www.w3.org/2000/svg" xmlns:xlink="http://www.w3.org/1999/xlink" viewBox="0 0 125.45 37.17">
  <defs>
    <style>
      .cls-1 {
        stroke: #fff;
        stroke-miterlimit: 10;
        stroke-width: .16px;
      }

      .cls-1, .cls-2, .cls-3 {
        fill: #fff;
      }

      .cls-4 {
        fill: url(#linear-gradient);
      }

      .cls-4, .cls-5, .cls-6, .cls-7, .cls-8, .cls-9, .cls-10, .cls-11, .cls-2, .cls-3 {
        stroke-width: 0px;
      }

      .cls-5 {
        opacity: .2;
      }

      .cls-5, .cls-6, .cls-3 {
        isolation: isolate;
      }

      .cls-6 {
        opacity: .12;
      }

      .cls-7 {
        fill: url(#linear-gradient-4);
      }

      .cls-8 {
        fill: url(#linear-gradient-2);
      }

      .cls-9 {
        fill: url(#linear-gradient-3);
      }

      .cls-11 {
        fill: #a6a6a6;
      }

      .cls-3 {
        opacity: .25;
      }
    </style>
    <linearGradient id="linear-gradient" x1="20.26" y1="28.35" x2="4.66" y2="12.75" gradientTransform="translate(0 36.44) scale(1 -1)" gradientUnits="userSpaceOnUse">
      <stop offset="0" stop-color="#00a0ff"/>
      <stop offset="0" stop-color="#00a1ff"/>
      <stop offset=".26" stop-color="#00beff"/>
      <stop offset=".51" stop-color="#00d2ff"/>
      <stop offset=".76" stop-color="#00dfff"/>
      <stop offset="1" stop-color="#00e3ff"/>
    </linearGradient>
    <linearGradient id="linear-gradient-2" x1="31.44" y1="17.85" x2="8.96" y2="17.85" gradientTransform="translate(0 36.44) scale(1 -1)" gradientUnits="userSpaceOnUse">
      <stop offset="0" stop-color="#ffe000"/>
      <stop offset=".41" stop-color="#ffbd00"/>
      <stop offset=".78" stop-color="orange"/>
      <stop offset="1" stop-color="#ff9c00"/>
    </linearGradient>
    <linearGradient id="linear-gradient-3" x1="23.07" y1="15.72" x2="1.92" y2="-5.43" gradientTransform="translate(0 36.44) scale(1 -1)" gradientUnits="userSpaceOnUse">
      <stop offset="0" stop-color="#ff3a44"/>
      <stop offset="1" stop-color="#c31162"/>
    </linearGradient>
    <linearGradient id="linear-gradient-4" x1="6.78" y1="36.28" x2="16.22" y2="26.83" gradientTransform="translate(0 36.44) scale(1 -1)" gradientUnits="userSpaceOnUse">
      <stop offset="0" stop-color="#32a071"/>
      <stop offset=".07" stop-color="#2da771"/>
      <stop offset=".48" stop-color="#15cf74"/>
      <stop offset=".8" stop-color="#06e775"/>
      <stop offset="1" stop-color="#00f076"/>
    </linearGradient>
  </defs>
  <g id="android">
    <rect class="cls-10" width="125.45" height="37.17" rx="4.65" ry="4.65"/>
    <path class="cls-11" d="m120.8.74c2.15,0,3.9,1.75,3.9,3.9v27.88c0,2.15-1.75,3.9-3.9,3.9H4.65c-2.15,0-3.9-1.75-3.9-3.9V4.65C.74,2.49,2.49.74,4.65.74h116.16M120.8,0H4.65C2.09,0,0,2.09,0,4.65v27.88c0,2.56,2.09,4.65,4.65,4.65h116.16c2.56,0,4.65-2.09,4.65-4.65V4.65C125.45,2.09,123.36,0,120.8,0h0Z"/>
    <g>
      <path class="cls-1" d="m44.06,9.52c0,.78-.23,1.4-.69,1.86-.52.55-1.21.82-2.05.82s-1.49-.28-2.05-.84c-.56-.56-.84-1.25-.84-2.08s.28-1.52.84-2.08c.56-.56,1.25-.84,2.05-.84.4,0,.78.08,1.14.23.36.16.65.36.87.62l-.49.49c-.37-.44-.88-.66-1.53-.66-.59,0-1.09.21-1.52.62-.43.41-.64.95-.64,1.61s.21,1.2.64,1.61c.43.41.94.62,1.52.62.62,0,1.14-.21,1.56-.62.27-.27.43-.65.47-1.13h-2.02v-.67h2.7c.03.15.04.29.04.42Z"/>
      <path class="cls-1" d="m48.35,7.19h-2.54v1.77h2.29v.67h-2.29v1.77h2.54v.69h-3.26v-5.58h3.26v.69Z"/>
      <path class="cls-1" d="m51.37,12.08h-.72v-4.89h-1.56v-.69h3.83v.69h-1.56v4.89Z"/>
      <path class="cls-1" d="m55.7,12.08v-5.58h.72v5.58h-.72Z"/>
      <path class="cls-1" d="m59.59,12.08h-.72v-4.89h-1.56v-.69h3.83v.69h-1.56v4.89Z"/>
      <path class="cls-1" d="m68.4,11.36c-.55.56-1.23.84-2.04.84s-1.5-.28-2.04-.84c-.55-.56-.82-1.25-.82-2.07s.27-1.5.82-2.07c.55-.56,1.23-.85,2.04-.85s1.49.28,2.04.85c.55.57.82,1.25.82,2.06s-.27,1.5-.82,2.07Zm-3.56-.47c.41.42.92.63,1.51.63s1.1-.21,1.51-.63c.41-.42.62-.95.62-1.6s-.21-1.18-.62-1.6c-.41-.42-.92-.63-1.51-.63s-1.1.21-1.51.63c-.41.42-.62.95-.62,1.6s.21,1.18.62,1.6Z"/>
      <path class="cls-1" d="m70.23,12.08v-5.58h.87l2.71,4.34h.03l-.03-1.07v-3.26h.72v5.58h-.75l-2.84-4.55h-.03l.03,1.07v3.47h-.72Z"/>
    </g>
    <path class="cls-2" d="m63.32,20.21c-2.19,0-3.97,1.66-3.97,3.95s1.78,3.95,3.97,3.95,3.97-1.68,3.97-3.95-1.78-3.95-3.97-3.95Zm0,6.35c-1.2,0-2.23-.99-2.23-2.4s1.03-2.4,2.23-2.4,2.23.97,2.23,2.4-1.03,2.4-2.23,2.4Zm-8.65-6.35c-2.19,0-3.97,1.66-3.97,3.95s1.78,3.95,3.97,3.95,3.97-1.68,3.97-3.95-1.78-3.95-3.97-3.95Zm0,6.35c-1.2,0-2.23-.99-2.23-2.4s1.03-2.4,2.23-2.4,2.23.97,2.23,2.4-1.03,2.4-2.23,2.4Zm-10.3-5.13v1.68h4.01c-.12.94-.43,1.63-.91,2.11-.58.58-1.5,1.23-3.1,1.23-2.47,0-4.4-1.99-4.4-4.46s1.93-4.46,4.4-4.46c1.33,0,2.31.52,3.02,1.2l1.18-1.18c-1-.96-2.34-1.69-4.21-1.69-3.38,0-6.23,2.75-6.23,6.14s2.84,6.14,6.23,6.14c1.83,0,3.2-.6,4.28-1.72,1.11-1.11,1.45-2.66,1.45-3.92,0-.39-.03-.75-.09-1.05h-5.64Zm42.1,1.3c-.33-.88-1.33-2.52-3.38-2.52s-3.73,1.6-3.73,3.95c0,2.22,1.68,3.95,3.92,3.95,1.81,0,2.86-1.11,3.29-1.75l-1.35-.9c-.45.66-1.06,1.09-1.95,1.09s-1.51-.4-1.92-1.2l5.28-2.19-.18-.45Zm-5.39,1.32c-.04-1.53,1.18-2.31,2.07-2.31.69,0,1.27.34,1.47.84l-3.53,1.47Zm-4.3,3.83h1.74v-11.62h-1.74v11.62Zm-2.84-6.78h-.06c-.39-.46-1.14-.88-2.08-.88-1.98,0-3.79,1.74-3.79,3.97s1.81,3.94,3.79,3.94c.94,0,1.69-.42,2.08-.9h.06v.57c0,1.51-.81,2.32-2.11,2.32-1.06,0-1.72-.76-1.99-1.41l-1.51.63c.43,1.05,1.59,2.34,3.5,2.34,2.04,0,3.76-1.2,3.76-4.12v-7.1h-1.65v.64Zm-1.99,5.46c-1.2,0-2.2-1-2.2-2.38s1-2.41,2.2-2.41,2.11,1.02,2.11,2.41-.93,2.38-2.11,2.38Zm22.66-10.3h-4.15v11.62h1.73v-4.4h2.42c1.92,0,3.81-1.39,3.81-3.61s-1.89-3.61-3.81-3.61Zm.04,5.6h-2.47v-3.98h2.47c1.3,0,2.03,1.07,2.03,1.99s-.74,1.99-2.03,1.99Zm10.72-1.67c-1.26,0-2.56.55-3.09,1.78l1.54.64c.33-.64.94-.85,1.58-.85.9,0,1.81.54,1.82,1.49v.12c-.31-.18-.99-.45-1.81-.45-1.66,0-3.35.91-3.35,2.62,0,1.55,1.36,2.56,2.88,2.56,1.17,0,1.81-.52,2.21-1.14h.06v.9h1.67v-4.45c0-2.06-1.54-3.21-3.53-3.21Zm-.21,6.37c-.57,0-1.36-.28-1.36-.99,0-.9.99-1.24,1.84-1.24.76,0,1.12.16,1.58.39-.13,1.08-1.06,1.84-2.06,1.84Zm9.83-6.11l-1.99,5.04h-.06l-2.06-5.04h-1.87l3.09,7.04-1.76,3.92h1.81l4.77-10.96h-1.93Zm-15.62,7.43h1.73v-11.62h-1.73v11.62Z"/>
    <g>
      <path class="cls-4" d="m9.7,7c-.27.29-.43.73-.43,1.31v20.55c0,.58.16,1.02.43,1.31l.07.07,11.51-11.51v-.27L9.77,6.94l-.07.07Z"/>
      <path class="cls-8" d="m25.12,22.56l-3.84-3.84v-.27l3.84-3.84.09.05,4.55,2.58c1.3.74,1.3,1.95,0,2.68l-4.55,2.58-.09.05Z"/>
      <path class="cls-9" d="m25.2,22.51l-3.92-3.93-11.58,11.58c.43.45,1.13.51,1.93.06l13.58-7.71"/>
      <path class="cls-7" d="m25.2,14.66l-13.58-7.71c-.8-.45-1.5-.4-1.93.06l11.58,11.58,3.92-3.93Z"/>
      <g>
        <path class="cls-5" d="m25.12,22.42l-13.49,7.66c-.75.43-1.43.4-1.86,0h0l-.07.07h0l.07.07h0c.43.39,1.11.42,1.86-.01l13.58-7.71-.09-.09Z"/>
        <path class="cls-6" d="m9.7,30.03c-.27-.29-.43-.73-.43-1.31v.14c0,.58.16,1.02.43,1.31l.07-.07-.07-.07Z"/>
      </g>
      <path class="cls-6" d="m29.75,19.79l-4.63,2.63.09.09,4.55-2.58c.65-.37.97-.86.97-1.34h0c-.05.44-.39.87-.97,1.21Z"/>
      <path class="cls-3" d="m11.63,7.08l18.12,10.3c.59.33.92.77.97,1.21h0c0-.49-.32-.97-.97-1.34L11.63,6.95c-1.3-.74-2.36-.12-2.36,1.36v.14c0-1.49,1.06-2.1,2.36-1.36Z"/>
    </g>
  </g>
</svg>