<?xml version="1.0" encoding="UTF-8"?>
<svg id="INFO" xmlns="http://www.w3.org/2000/svg" viewBox="0 0 30.42 30.42">
  <defs>
    <style>
      .cls-1 {
        fill: #838383;
      }

      .cls-1, .cls-2 {
        stroke-width: 0px;
      }

      .cls-2 {
        fill: #dcdcdc;
      }
    </style>
  </defs>
  <rect class="cls-2" x="0" y="0" width="30.42" height="30.42" rx="15.21" ry="15.21"/>
  <path class="cls-1" d="m21.59,18.63l-3.55-3.04c.62-.68,1-1.58,1-2.57v-2.19c0-2.11-1.72-3.84-3.84-3.84s-3.84,1.72-3.84,3.84v.54h0v1.65c0,.99.38,1.89,1,2.57l-3.55,3.04c-.12.1-.19.26-.19.42v3.84c0,.3.25.55.55.55h12.05c.3,0,.55-.25.55-.55v-3.84c0-.16-.07-.31-.19-.42Zm-9.12-5.61v-1.21c.38-.1.76-.24,1.12-.4.68.24,1.38.41,2.09.5.48.06.96.1,1.44.1.27,0,.55-.01.82-.03v1.04c0,1.51-1.23,2.74-2.74,2.74s-2.74-1.23-2.74-2.74Zm2.74-4.93c1.51,0,2.74,1.23,2.74,2.74v.05c-.71.06-1.42.05-2.12-.05-.31-.04-.61-.1-.92-.17.23-.16.45-.33.66-.52.23-.2.25-.55.04-.77-.2-.23-.55-.24-.77-.04-.46.41-.97.75-1.52,1.01-.28.13-.56.24-.85.33.08-1.44,1.28-2.58,2.73-2.58Zm5.48,14.25h-10.96v-3.04l3.5-3c.58.35,1.25.56,1.98.56s1.4-.21,1.98-.56l3.5,3v3.04Z"/>
</svg>