<?xml version="1.0" encoding="UTF-8"?>
<svg id="INFO" xmlns="http://www.w3.org/2000/svg" viewBox="0 0 34.26 20.46">
  <defs>
    <style>
      .cls-1 {
        fill: #6f6f6f;
        stroke-width: 0px;
      }
    </style>
  </defs>
  <path id="Trazado_97" data-name="Trazado 97" class="cls-1" d="m29.12,20.45l-2.51-3.36c3.79-2.9,4.51-8.32,1.62-12.11-.47-.61-1.01-1.15-1.62-1.62L29.1.02c5.65,4.17,6.85,12.12,2.68,17.77-.75,1.01-1.65,1.91-2.66,2.66"/>
  <path id="Trazado_98" data-name="Trazado 98" class="cls-1" d="m7.67,17.09l-2.53,3.34C-.51,16.24-1.68,8.26,2.52,2.61c.74-.99,1.61-1.87,2.61-2.61l2.54,3.39c-2.16,1.61-3.42,4.16-3.4,6.86-.02,2.69,1.25,5.24,3.41,6.85"/>
  <path id="Trazado_99" data-name="Trazado 99" class="cls-1" d="m22.56,17.32l-2.33-3.51c2.54-2.38,2.54-5.01-.01-7.19l2.34-3.54c3.94,2.64,4.99,7.97,2.35,11.9-.62.93-1.42,1.73-2.35,2.35"/>
  <path id="Trazado_100" data-name="Trazado 100" class="cls-1" d="m11.68,3.08l2.34,3.53c-2.56,2.39-2.56,4.58-.01,7.23l-2.32,3.49c-3.93-2.63-4.99-7.95-2.35-11.89.62-.93,1.42-1.73,2.35-2.35"/>
  <path id="Trazado_101" data-name="Trazado 101" class="cls-1" d="m15,10.24c0-1.17.94-2.13,2.12-2.14,1.17,0,2.13.94,2.14,2.12,0,1.17-.93,2.12-2.1,2.14-1.17.01-2.14-.93-2.15-2.1,0,0,0,0,0-.01"/>
</svg>