<?xml version="1.0" encoding="UTF-8"?>
<svg id="INFO" xmlns="http://www.w3.org/2000/svg" viewBox="0 0 111.26 37.19">
  <defs>
    <style>
      .cls-1, .cls-2, .cls-3 {
        stroke-width: 0px;
      }

      .cls-2 {
        fill: #b6b6b6;
      }

      .cls-3 {
        fill: #fff;
      }
    </style>
  </defs>
  <g id="ios">
    <g>
      <g>
        <path class="cls-2" d="m102.4,0H8.86c-.34,0-.68,0-1.02,0-.28,0-.57,0-.85.01-.62.02-1.25.05-1.86.16-.62.11-1.2.3-1.77.58-.56.29-1.07.66-1.5,1.1-.44.44-.81.95-1.1,1.51-.29.57-.47,1.15-.58,1.77-.11.62-.15,1.24-.17,1.86,0,.29,0,.57-.01.86v21.49c0,.29,0,.57.01.86.02.62.05,1.25.17,1.86.11.62.29,1.21.58,1.77.28.55.65,1.06,1.1,1.5.44.44.95.81,1.5,1.1.57.29,1.14.47,1.77.59.62.11,1.24.15,1.86.16.29,0,.57,0,.85,0,.34,0,.68,0,1.02,0h93.53c.33,0,.67,0,1.01,0,.28,0,.57,0,.86,0,.62-.02,1.25-.05,1.86-.16.62-.11,1.2-.3,1.77-.59.56-.28,1.06-.65,1.5-1.1.44-.44.81-.95,1.1-1.5.29-.56.47-1.15.58-1.77.11-.62.15-1.24.17-1.86,0-.29,0-.57,0-.86,0-.34,0-.67,0-1.02V8.87c0-.34,0-.68,0-1.02,0-.29,0-.57,0-.86-.02-.62-.06-1.25-.17-1.86-.11-.62-.29-1.2-.58-1.77-.29-.56-.66-1.07-1.1-1.51-.44-.44-.95-.81-1.5-1.1-.57-.29-1.15-.47-1.77-.58-.61-.11-1.24-.15-1.86-.16-.28,0-.57,0-.86-.01-.33,0-.67,0-1.01,0h0Z"/>
        <path class="cls-1" d="m7.85,36.38c-.28,0-.56,0-.84,0-.52-.01-1.14-.04-1.74-.15-.57-.1-1.07-.27-1.54-.51-.48-.25-.92-.56-1.3-.95-.38-.38-.7-.81-.95-1.3-.24-.47-.41-.97-.5-1.54-.11-.63-.14-1.26-.15-1.74,0-.2-.01-.85-.01-.85V7.85s0-.64.01-.83c.01-.49.04-1.12.15-1.74.1-.57.26-1.07.51-1.55.25-.49.56-.92.94-1.3.38-.38.82-.7,1.3-.95.48-.24.98-.41,1.54-.51.63-.11,1.26-.14,1.74-.15h.84s95.55-.01,95.55-.01h.85c.48.02,1.11.05,1.73.16.56.1,1.07.26,1.55.51.48.24.91.56,1.29.94.38.38.7.82.95,1.31.24.48.4.98.5,1.53.11.59.14,1.19.16,1.75,0,.26,0,.55,0,.83,0,.35,0,.68,0,1.02v19.46c0,.34,0,.67,0,1,0,.3,0,.58,0,.86-.02.55-.05,1.15-.16,1.72-.1.57-.26,1.07-.5,1.55-.25.48-.57.92-.94,1.29-.38.39-.82.71-1.3.95-.48.25-.97.41-1.55.51-.6.11-1.21.14-1.74.15-.27,0-.56,0-.83,0h-1.01s-94.54,0-94.54,0Z"/>
      </g>
      <g>
        <g>
          <path class="cls-3" d="m23.03,18.87c-.02-2.56,2.09-3.8,2.19-3.86-1.2-1.75-3.06-1.99-3.71-2.01-1.56-.16-3.07.93-3.87.93s-2.04-.92-3.35-.89c-1.7.03-3.29,1.01-4.16,2.54-1.8,3.11-.46,7.69,1.27,10.2.86,1.23,1.87,2.61,3.19,2.56,1.29-.05,1.77-.82,3.33-.82s1.99.82,3.34.79c1.38-.02,2.26-1.24,3.09-2.48,1-1.41,1.4-2.8,1.41-2.88-.03-.01-2.69-1.02-2.71-4.09Z"/>
          <path class="cls-3" d="m20.49,11.35c.69-.87,1.17-2.05,1.04-3.25-1,.04-2.26.69-2.98,1.54-.64.75-1.21,1.97-1.06,3.13,1.13.08,2.29-.57,3.01-1.42Z"/>
        </g>
        <g>
          <path class="cls-3" d="m39.33,25.23h-4.4l-1.06,3.12h-1.86l4.17-11.55h1.94l4.17,11.55h-1.9l-1.06-3.12Zm-3.95-1.44h3.49l-1.72-5.06h-.05l-1.72,5.06Z"/>
          <path class="cls-3" d="m51.28,24.14c0,2.62-1.4,4.3-3.51,4.3-1.2,0-2.15-.54-2.65-1.47h-.04v4.17h-1.73v-11.2h1.67v1.4h.03c.48-.9,1.5-1.49,2.68-1.49,2.14,0,3.54,1.69,3.54,4.3Zm-1.78,0c0-1.7-.88-2.82-2.22-2.82s-2.21,1.14-2.21,2.82.89,2.83,2.21,2.83,2.22-1.11,2.22-2.83Z"/>
          <path class="cls-3" d="m60.55,24.14c0,2.62-1.4,4.3-3.51,4.3-1.2,0-2.15-.54-2.65-1.47h-.04v4.17h-1.73v-11.2h1.67v1.4h.03c.48-.9,1.5-1.49,2.68-1.49,2.14,0,3.54,1.69,3.54,4.3Zm-1.78,0c0-1.7-.88-2.82-2.22-2.82s-2.21,1.14-2.21,2.82.89,2.83,2.21,2.83,2.22-1.11,2.22-2.83Z"/>
          <path class="cls-3" d="m66.67,25.14c.13,1.14,1.24,1.9,2.76,1.9s2.5-.75,2.5-1.78c0-.9-.63-1.43-2.13-1.8l-1.5-.36c-2.12-.51-3.1-1.5-3.1-3.11,0-1.99,1.74-3.36,4.2-3.36s4.11,1.37,4.17,3.36h-1.74c-.1-1.15-1.06-1.85-2.45-1.85s-2.34.7-2.34,1.73c0,.82.61,1.3,2.1,1.66l1.27.31c2.37.56,3.35,1.51,3.35,3.2,0,2.16-1.72,3.51-4.46,3.51-2.56,0-4.29-1.32-4.4-3.41h1.77Z"/>
          <path class="cls-3" d="m77.49,17.94v1.99h1.6v1.37h-1.6v4.64c0,.72.32,1.06,1.02,1.06.18,0,.46-.02.57-.04v1.36c-.19.05-.58.08-.96.08-1.7,0-2.37-.64-2.37-2.27v-4.82h-1.22v-1.37h1.22v-1.99h1.74Z"/>
          <path class="cls-3" d="m80.02,24.14c0-2.65,1.56-4.31,3.99-4.31s3.99,1.66,3.99,4.31-1.54,4.31-3.99,4.31-3.99-1.66-3.99-4.31Zm6.22,0c0-1.82-.83-2.89-2.23-2.89s-2.23,1.08-2.23,2.89.83,2.89,2.23,2.89,2.23-1.06,2.23-2.89Z"/>
          <path class="cls-3" d="m89.43,19.94h1.65v1.43h.04c.26-.95,1.03-1.52,2.02-1.52.25,0,.46.03.59.06v1.62c-.14-.06-.44-.1-.78-.1-1.11,0-1.8.75-1.8,1.94v4.99h-1.73v-8.42Z"/>
          <path class="cls-3" d="m101.7,25.88c-.23,1.53-1.72,2.58-3.62,2.58-2.45,0-3.97-1.64-3.97-4.27s1.53-4.35,3.9-4.35,3.79,1.6,3.79,4.15v.59h-5.95v.1c0,1.44.9,2.38,2.26,2.38.96,0,1.71-.46,1.94-1.18h1.64Zm-5.84-2.51h4.21c-.04-1.29-.86-2.14-2.06-2.14s-2.06.86-2.14,2.14Z"/>
        </g>
      </g>
    </g>
    <g>
      <path class="cls-3" d="m35.17,8.12c1.65,0,2.61,1.01,2.61,2.76s-.96,2.79-2.61,2.79h-2v-5.55h2Zm-1.14,4.76h1.05c1.16,0,1.83-.72,1.83-2s-.68-1.98-1.83-1.98h-1.05v3.98Z"/>
      <path class="cls-3" d="m38.75,11.57c0-1.35.75-2.17,1.98-2.17s1.97.82,1.97,2.17-.75,2.18-1.97,2.18-1.98-.82-1.98-2.18Zm3.1,0c0-.91-.41-1.44-1.12-1.44s-1.12.53-1.12,1.44.4,1.44,1.12,1.44,1.12-.53,1.12-1.44Z"/>
      <path class="cls-3" d="m47.95,13.66h-.86l-.87-3.08h-.07l-.86,3.08h-.85l-1.15-4.19h.84l.75,3.19h.06l.86-3.19h.79l.86,3.19h.07l.75-3.19h.83l-1.15,4.19Z"/>
      <path class="cls-3" d="m50.07,9.48h.8v.67h.06c.2-.47.62-.75,1.25-.75.93,0,1.45.56,1.45,1.56v2.71h-.83v-2.5c0-.67-.29-1.01-.9-1.01s-1,.41-1,1.06v2.45h-.83v-4.19Z"/>
      <path class="cls-3" d="m54.94,7.84h.83v5.82h-.83v-5.82Z"/>
      <path class="cls-3" d="m56.92,11.57c0-1.35.75-2.17,1.98-2.17s1.97.82,1.97,2.17-.75,2.18-1.97,2.18-1.98-.82-1.98-2.18Zm3.1,0c0-.91-.41-1.44-1.12-1.44s-1.12.53-1.12,1.44.4,1.44,1.12,1.44,1.12-.53,1.12-1.44Z"/>
      <path class="cls-3" d="m61.74,12.48c0-.75.56-1.19,1.56-1.25l1.13-.07v-.36c0-.44-.29-.69-.86-.69-.46,0-.78.17-.87.47h-.8c.08-.72.76-1.18,1.71-1.18,1.05,0,1.64.52,1.64,1.41v2.86h-.8v-.59h-.07c-.25.42-.71.66-1.26.66-.81,0-1.4-.49-1.4-1.25Zm2.69-.36v-.35l-1.02.07c-.58.04-.84.23-.84.6s.33.6.78.6c.62,0,1.08-.4,1.08-.92Z"/>
      <path class="cls-3" d="m66.33,11.57c0-1.32.68-2.16,1.74-2.16.57,0,1.06.27,1.28.73h.06v-2.3h.83v5.82h-.79v-.66h-.07c-.25.46-.74.73-1.31.73-1.06,0-1.74-.84-1.74-2.16Zm.85,0c0,.89.42,1.42,1.12,1.42s1.13-.54,1.13-1.42-.43-1.42-1.13-1.42-1.12.54-1.12,1.42Z"/>
      <path class="cls-3" d="m73.66,11.57c0-1.35.75-2.17,1.98-2.17s1.97.82,1.97,2.17-.75,2.18-1.97,2.18-1.98-.82-1.98-2.18Zm3.1,0c0-.91-.41-1.44-1.12-1.44s-1.12.53-1.12,1.44.4,1.44,1.12,1.44,1.12-.53,1.12-1.44Z"/>
      <path class="cls-3" d="m78.72,9.48h.8v.67h.06c.2-.47.62-.75,1.25-.75.93,0,1.45.56,1.45,1.56v2.71h-.83v-2.5c0-.67-.29-1.01-.9-1.01s-1,.41-1,1.06v2.45h-.83v-4.19Z"/>
      <path class="cls-3" d="m86.94,8.44v1.06h.91v.7h-.91v2.15c0,.44.18.63.59.63.13,0,.2,0,.32-.02v.69c-.13.02-.29.04-.45.04-.92,0-1.28-.32-1.28-1.13v-2.36h-.66v-.7h.66v-1.06h.83Z"/>
      <path class="cls-3" d="m88.98,7.84h.82v2.31h.07c.2-.47.65-.75,1.28-.75.89,0,1.44.57,1.44,1.56v2.7h-.83v-2.5c0-.67-.31-1.01-.9-1.01-.68,0-1.05.43-1.05,1.06v2.45h-.83v-5.82Z"/>
      <path class="cls-3" d="m97.4,12.53c-.19.75-.86,1.21-1.81,1.21-1.2,0-1.93-.82-1.93-2.16s.75-2.19,1.93-2.19,1.87.8,1.87,2.11v.29h-2.96v.05c.03.73.45,1.2,1.11,1.2.5,0,.84-.18,1-.51h.8Zm-2.91-1.35h2.11c-.02-.66-.42-1.08-1.03-1.08s-1.04.43-1.08,1.08Z"/>
    </g>
  </g>
</svg>