<?xml version="1.0" encoding="UTF-8"?>
<svg id="INFO" xmlns="http://www.w3.org/2000/svg" viewBox="0 0 19.7 19.69">
  <defs>
    <style>
      .cls-1 {
        fill: #fff;
        stroke-width: 0px;
      }
    </style>
  </defs>
  <g id="Trazado_140" data-name="Trazado 140">
    <path class="cls-1" d="m14.92,19.69H2.96c-1.63,0-2.96-1.33-2.96-2.96V4.77C0,3.14,1.33,1.81,2.96,1.81h5.98c.69,0,1.25.56,1.25,1.25s-.56,1.25-1.25,1.25H2.96c-.25,0-.46.21-.46.46v11.96c0,.25.21.46.46.46h11.96c.25,0,.46-.21.46-.46v-5.98c0-.69.56-1.25,1.25-1.25s1.25.56,1.25,1.25v5.98c0,1.63-1.33,2.96-2.96,2.96Z"/>
  </g>
  <g id="Trazado_141" data-name="Trazado 141">
    <path class="cls-1" d="m6.38,14.57c-.33,0-.65-.13-.88-.37-.31-.31-.44-.76-.33-1.19l.85-3.42c.05-.22.17-.42.33-.58L14.47.9h0c1.19-1.19,3.14-1.19,4.33,0,.58.58.9,1.35.9,2.17s-.32,1.59-.9,2.17l-8.12,8.12c-.16.16-.36.27-.58.33l-3.42.86c-.1.02-.2.04-.3.04Zm1.98-4.03l-.27,1.06,1.06-.27,7.87-7.87c.14-.14.17-.31.17-.4s-.02-.25-.17-.4c-.22-.22-.58-.22-.8,0l-7.87,7.87Z"/>
  </g>
</svg>