<?xml version="1.0" encoding="UTF-8"?>
<svg id="INFO" xmlns="http://www.w3.org/2000/svg" viewBox="0 0 35 35">
  <defs>
    <style>
      .cls-1 {
        fill: #fb8500;
        stroke-width: 0px;
      }
    </style>
  </defs>
  <path class="cls-1" d="m17.5,0C7.84,0,0,7.84,0,17.5s7.84,17.5,17.5,17.5,17.5-7.83,17.5-17.5S27.16,0,17.5,0Zm8.04,11.77s0,0,0,0v-.02s-1.37,1.37-1.37,1.37c-.28.26-.71.26-.99.01-1.33-1.12-3.02-1.74-4.76-1.75-1.43,0-2.87.47-2.87,1.79s1.54,1.77,3.31,2.44c3.11,1.03,5.68,2.34,5.68,5.38,0,3.31-2.58,5.59-6.77,5.84l-.39,1.77c-.07.34-.37.58-.71.58h-2.79c-.39-.1-.64-.49-.56-.89l.41-1.88c-1.59-.4-3.06-1.2-4.26-2.33-.28-.28-.28-.73,0-1,0,0,0,0,0,0l1.48-1.43c.28-.26.71-.26.99,0,1.35,1.28,3.15,1.98,5.01,1.95,1.92,0,3.21-.81,3.21-2.09s-1.3-1.63-3.76-2.54c-2.6-.93-5.07-2.25-5.07-5.32,0-3.58,2.97-5.32,6.49-5.48l.37-1.82c.07-.33.37-.57.71-.56h2.78c.38.09.63.47.55.85,0,0,0,0,0,0l-.4,2.03c1.34.45,2.59,1.14,3.67,2.06l.03.03c.28.27.28.72,0,1Z"/>
</svg>