<?xml version="1.0" encoding="UTF-8"?>
<svg id="INFO" xmlns="http://www.w3.org/2000/svg" viewBox="0 0 18.88 14.78">
  <defs>
    <style>
      .cls-1 {
        stroke-width: 0px;
      }
    </style>
  </defs>
  <path class="cls-1" d="m0,12.03c0,1.51,1.23,2.75,2.75,2.75h13.39c1.51,0,2.75-1.23,2.75-2.75V2.75c0-1.51-1.23-2.75-2.75-2.75H2.75C1.23,0,0,1.23,0,2.75v9.29Zm16.76-7.56H2.11v-1.72c0-.35.28-.63.63-.63h13.39c.35,0,.63.28.63.63v1.72ZM2.11,6.59h14.65v5.45c0,.35-.28.63-.63.63H2.75c-.35,0-.63-.28-.63-.63v-5.45Z"/>
  <path class="cls-1" d="m5.29,10.68h2.42c.58,0,1.06-.47,1.06-1.06s-.47-1.06-1.06-1.06h-2.42c-.58,0-1.06.47-1.06,1.06s.47,1.06,1.06,1.06Z"/>
</svg>