<?xml version="1.0" encoding="UTF-8"?>
<svg id="INFO" xmlns="http://www.w3.org/2000/svg" viewBox="0 0 16.78 16.78">
  <defs>
    <style>
      .cls-1 {
        stroke-width: 0px;
      }
    </style>
  </defs>
  <path class="cls-1" d="m8.39,0C3.76,0,0,3.76,0,8.39s3.76,8.39,8.39,8.39,8.39-3.76,8.39-8.39S13.02,0,8.39,0Zm6.47,8.39c0,3.57-2.9,6.47-6.47,6.47S1.92,11.96,1.92,8.39,4.82,1.92,8.39,1.92s6.47,2.9,6.47,6.47Z"/>
  <path class="cls-1" d="m9.35,7.99v-2.97c0-.53-.43-.96-.96-.96s-.96.43-.96.96v3.37c0,.26.1.5.28.68l2.59,2.59c.18.18.42.28.68.28s.5-.1.68-.28c.37-.37.37-.98,0-1.36l-2.31-2.31Z"/>
</svg>