<?xml version="1.0" encoding="UTF-8"?>
<svg id="INFO" xmlns="http://www.w3.org/2000/svg" viewBox="0 0 21 14.21">
  <defs>
    <style>
      .cls-1 {
        stroke-width: 0px;
      }
    </style>
  </defs>
  <path class="cls-1" d="m1.07,14.21c.59,0,1.07-.48,1.07-1.07v-3.35l9.7,3.88c.23.09.47.14.72.14.39,0,.76-.12,1.08-.33.53-.36.85-.96.85-1.6V1.94c0-.64-.32-1.24-.85-1.6-.53-.36-1.21-.43-1.8-.2L1.22,4.39c-.74.29-1.22,1-1.22,1.8v6.95c0,.59.48,1.07,1.07,1.07Zm1.07-7.31v-.57l5-2v5.14l-5-2v-.57Zm7.15-3.43l3.05-1.22v9.3l-3.05-1.22V3.47Z"/>
  <path class="cls-1" d="m16.67,3.37c.14,0,.27-.03.4-.08l1.51-.6c.27-.11.48-.31.59-.57.11-.26.12-.56.01-.82-.22-.55-.85-.82-1.4-.6l-1.51.6c-.27.11-.48.31-.59.57-.11.26-.12.56,0,.82.16.41.56.68,1,.68Z"/>
  <path class="cls-1" d="m19.17,11.69c-.11-.26-.32-.47-.59-.58l-1.51-.6c-.27-.11-.56-.1-.82,0-.26.11-.47.32-.58.59-.11.27-.1.56,0,.82.11.26.32.47.59.58l1.51.6c.13.05.26.08.4.08.44,0,.83-.27,1-.68.11-.27.1-.56,0-.82Z"/>
  <path class="cls-1" d="m19.93,5.83h-3.25c-.59,0-1.07.48-1.07,1.07s.48,1.07,1.07,1.07h3.25c.59,0,1.07-.48,1.07-1.07s-.48-1.07-1.07-1.07Z"/>
</svg>